<svg xmlns="http://www.w3.org/2000/svg" version="1.1" xmlns:xlink="http://www.w3.org/1999/xlink" xmlns:svgjs="http://svgjs.dev/svgjs" viewBox="0 0 800 800"><symbol id="SvgjsSymbol1003"><polygon points="0,12.5 25,0 50,12.5 25,25"></polygon></symbol><symbol id="SvgjsSymbol1004"><polygon points="0,12.5 25,25 25,50 0,37.5"></polygon></symbol><symbol id="SvgjsSymbol1005"><polygon points="25,25 50,12.5 50,37.5 25,50"></polygon></symbol><g shape-rendering="crispEdges"><g><use xlink:href="#SvgjsSymbol1009" x="250" y="525" fill="hsl(212, 84%, 34%)"></use><use xlink:href="#SvgjsSymbol1010" x="250" y="525" fill="#547ed2"></use><use xlink:href="#SvgjsSymbol1011" x="250" y="525" fill="#002b71"></use></g><g><use xlink:href="#SvgjsSymbol1009" x="350" y="525" fill="hsl(212, 84%, 34%)"></use><use xlink:href="#SvgjsSymbol1010" x="350" y="525" fill="#547ed2"></use><use xlink:href="#SvgjsSymbol1011" x="350" y="525" fill="#002b71"></use></g><g><use xlink:href="#SvgjsSymbol1009" x="450" y="525" fill="hsl(212, 84%, 34%)"></use><use xlink:href="#SvgjsSymbol1010" x="450" y="525" fill="#547ed2"></use><use xlink:href="#SvgjsSymbol1011" x="450" y="525" fill="#002b71"></use></g><g><use xlink:href="#SvgjsSymbol1009" x="300" y="450" fill="hsl(212, 25%, 54%)"></use><use xlink:href="#SvgjsSymbol1010" x="300" y="450" fill="#9cb8d9"></use><use xlink:href="#SvgjsSymbol1011" x="300" y="450" fill="#3e5b78"></use></g><g><use xlink:href="#SvgjsSymbol1009" x="400" y="450" fill="hsl(212, 25%, 54%)"></use><use xlink:href="#SvgjsSymbol1010" x="400" y="450" fill="#9cb8d9"></use><use xlink:href="#SvgjsSymbol1011" x="400" y="450" fill="#3e5b78"></use></g><g><use xlink:href="#SvgjsSymbol1009" x="350" y="375" fill="hsl(0, 0%, 94%)"></use><use xlink:href="#SvgjsSymbol1010" x="350" y="375" fill="#ffffff"></use><use xlink:href="#SvgjsSymbol1011" x="350" y="375" fill="#bdbdbd"></use></g></g><g></g><symbol id="SvgjsSymbol1006"><polygon points="0,18.75 37.5,0 75,18.75 37.5,37.5"></polygon></symbol><symbol id="SvgjsSymbol1007"><polygon points="0,18.75 37.5,37.5 37.5,75 0,56.25"></polygon></symbol><symbol id="SvgjsSymbol1008"><polygon points="37.5,37.5 75,18.75 75,56.25 37.5,75"></polygon></symbol><symbol id="SvgjsSymbol1009"><polygon points="0,25 50,0 100,25 50,50"></polygon></symbol><symbol id="SvgjsSymbol1010"><polygon points="0,25 50,50 50,100 0,75"></polygon></symbol><symbol id="SvgjsSymbol1011"><polygon points="50,50 100,25 100,75 50,100"></polygon></symbol></svg>